<mxfile host="app.diagrams.net" modified="2023-09-30T08:45:41.844Z" agent="Mozilla/5.0 (Windows NT 10.0; Win64; x64) AppleWebKit/537.36 (KHTML, like Gecko) Chrome/117.0.0.0 Safari/537.36 Edg/117.0.2045.43" etag="jqVvToYuQopnqNl--VH5" version="22.0.0" type="github">
  <diagram name="Page-1" id="815rOMbBudBat-AfH9Vg">
    <mxGraphModel dx="2492" dy="2127" grid="1" gridSize="10" guides="1" tooltips="1" connect="1" arrows="1" fold="1" page="1" pageScale="1" pageWidth="850" pageHeight="1100" math="0" shadow="0">
      <root>
        <mxCell id="0" />
        <mxCell id="1" parent="0" />
        <mxCell id="lEjJGEC7RTq6nAE6RUfV-1" value="ELISA Readings" style="rounded=1;whiteSpace=wrap;html=1;" vertex="1" parent="1">
          <mxGeometry x="80" y="180" width="210" height="110" as="geometry" />
        </mxCell>
        <mxCell id="lEjJGEC7RTq6nAE6RUfV-2" value="Capture adn Detection Antibodies" style="rounded=1;whiteSpace=wrap;html=1;" vertex="1" parent="1">
          <mxGeometry x="80" y="490" width="210" height="110" as="geometry" />
        </mxCell>
        <mxCell id="lEjJGEC7RTq6nAE6RUfV-3" value="Sample" style="rounded=1;whiteSpace=wrap;html=1;" vertex="1" parent="1">
          <mxGeometry x="550" y="180" width="210" height="110" as="geometry" />
        </mxCell>
        <mxCell id="lEjJGEC7RTq6nAE6RUfV-4" value="Antigen" style="rounded=1;whiteSpace=wrap;html=1;" vertex="1" parent="1">
          <mxGeometry x="550" y="485" width="230" height="105" as="geometry" />
        </mxCell>
        <mxCell id="lEjJGEC7RTq6nAE6RUfV-5" value="Reading Time" style="ellipse;whiteSpace=wrap;html=1;" vertex="1" parent="1">
          <mxGeometry x="160" y="-42.5" width="120" height="80" as="geometry" />
        </mxCell>
        <mxCell id="lEjJGEC7RTq6nAE6RUfV-6" value="Absorbance Value" style="ellipse;whiteSpace=wrap;html=1;" vertex="1" parent="1">
          <mxGeometry x="-40" y="-20" width="120" height="80" as="geometry" />
        </mxCell>
        <mxCell id="lEjJGEC7RTq6nAE6RUfV-7" value="Abosorbance wavelength" style="ellipse;whiteSpace=wrap;html=1;" vertex="1" parent="1">
          <mxGeometry x="-160" y="70" width="120" height="80" as="geometry" />
        </mxCell>
        <mxCell id="lEjJGEC7RTq6nAE6RUfV-8" value="Reading/ Well ID" style="ellipse;whiteSpace=wrap;html=1;" vertex="1" parent="1">
          <mxGeometry x="-190" y="195" width="120" height="80" as="geometry" />
        </mxCell>
        <mxCell id="lEjJGEC7RTq6nAE6RUfV-9" value="Sample Source" style="ellipse;whiteSpace=wrap;html=1;" vertex="1" parent="1">
          <mxGeometry x="700" y="-30" width="120" height="80" as="geometry" />
        </mxCell>
        <mxCell id="lEjJGEC7RTq6nAE6RUfV-10" value="Sample ID" style="ellipse;whiteSpace=wrap;html=1;" vertex="1" parent="1">
          <mxGeometry x="510" y="-60" width="120" height="80" as="geometry" />
        </mxCell>
        <mxCell id="lEjJGEC7RTq6nAE6RUfV-11" value="Collection Date" style="ellipse;whiteSpace=wrap;html=1;" vertex="1" parent="1">
          <mxGeometry x="870" y="50" width="120" height="80" as="geometry" />
        </mxCell>
        <mxCell id="lEjJGEC7RTq6nAE6RUfV-12" value="Date of sample collection" style="ellipse;whiteSpace=wrap;html=1;" vertex="1" parent="1">
          <mxGeometry x="910" y="190" width="120" height="80" as="geometry" />
        </mxCell>
        <mxCell id="lEjJGEC7RTq6nAE6RUfV-14" value="Antibody ID" style="ellipse;whiteSpace=wrap;html=1;" vertex="1" parent="1">
          <mxGeometry x="200" y="770" width="120" height="80" as="geometry" />
        </mxCell>
        <mxCell id="lEjJGEC7RTq6nAE6RUfV-15" value="Concentration" style="ellipse;whiteSpace=wrap;html=1;" vertex="1" parent="1">
          <mxGeometry y="740" width="120" height="80" as="geometry" />
        </mxCell>
        <mxCell id="lEjJGEC7RTq6nAE6RUfV-16" value="Conjugation" style="ellipse;whiteSpace=wrap;html=1;" vertex="1" parent="1">
          <mxGeometry x="-200" y="470" width="120" height="80" as="geometry" />
        </mxCell>
        <mxCell id="lEjJGEC7RTq6nAE6RUfV-17" value="Source of Abs such as Goat, Rabbit,etc." style="ellipse;whiteSpace=wrap;html=1;" vertex="1" parent="1">
          <mxGeometry x="-160" y="613" width="120" height="80" as="geometry" />
        </mxCell>
        <mxCell id="lEjJGEC7RTq6nAE6RUfV-18" style="edgeStyle=orthogonalEdgeStyle;rounded=0;orthogonalLoop=1;jettySize=auto;html=1;exitX=0.5;exitY=1;exitDx=0;exitDy=0;" edge="1" parent="1" source="lEjJGEC7RTq6nAE6RUfV-15" target="lEjJGEC7RTq6nAE6RUfV-15">
          <mxGeometry relative="1" as="geometry" />
        </mxCell>
        <mxCell id="lEjJGEC7RTq6nAE6RUfV-19" value="Concentration" style="ellipse;whiteSpace=wrap;html=1;" vertex="1" parent="1">
          <mxGeometry x="720" y="740" width="120" height="80" as="geometry" />
        </mxCell>
        <mxCell id="lEjJGEC7RTq6nAE6RUfV-20" value="Date of Analysis" style="ellipse;whiteSpace=wrap;html=1;" vertex="1" parent="1">
          <mxGeometry x="500" y="770" width="120" height="80" as="geometry" />
        </mxCell>
        <mxCell id="lEjJGEC7RTq6nAE6RUfV-21" value="Antigen ID" style="ellipse;whiteSpace=wrap;html=1;" vertex="1" parent="1">
          <mxGeometry x="880" y="470" width="120" height="80" as="geometry" />
        </mxCell>
        <mxCell id="lEjJGEC7RTq6nAE6RUfV-22" value="Description" style="ellipse;whiteSpace=wrap;html=1;" vertex="1" parent="1">
          <mxGeometry x="860" y="613" width="120" height="80" as="geometry" />
        </mxCell>
        <mxCell id="lEjJGEC7RTq6nAE6RUfV-25" value="" style="rhombus;whiteSpace=wrap;html=1;" vertex="1" parent="1">
          <mxGeometry x="90" y="350" width="160" height="80" as="geometry" />
        </mxCell>
        <mxCell id="lEjJGEC7RTq6nAE6RUfV-26" value="" style="rhombus;whiteSpace=wrap;html=1;" vertex="1" parent="1">
          <mxGeometry x="560" y="350" width="160" height="80" as="geometry" />
        </mxCell>
        <mxCell id="lEjJGEC7RTq6nAE6RUfV-27" value="" style="rhombus;whiteSpace=wrap;html=1;" vertex="1" parent="1">
          <mxGeometry x="330" y="580" width="160" height="80" as="geometry" />
        </mxCell>
        <mxCell id="lEjJGEC7RTq6nAE6RUfV-28" value="" style="rhombus;whiteSpace=wrap;html=1;" vertex="1" parent="1">
          <mxGeometry x="330" y="100" width="160" height="60" as="geometry" />
        </mxCell>
      </root>
    </mxGraphModel>
  </diagram>
</mxfile>
